HIERARCHY
ROOT hip
{
	OFFSET 0.000000 0.000000 0.000000 
	CHANNELS 6 Xposition Yposition Zposition Xrotation Zrotation Yrotation
	JOINT abdomen
	{
		OFFSET 0.000000 3.402643 0.000000 
		CHANNELS 3 Xrotation Zrotation Yrotation
		JOINT chest
		{
			OFFSET 0.000000 8.438565 -0.680529 
			CHANNELS 3 Xrotation Zrotation Yrotation
			JOINT neck
			{
				OFFSET 0.000000 10.207942 -0.272212 
				CHANNELS 3 Xrotation Zrotation Yrotation
				JOINT head
				{
					OFFSET 0.000000 3.130431 0.000000 
					CHANNELS 3 Xrotation Zrotation Yrotation
					End Site
					{
						OFFSET 0.000000 3.130435 0.000000 
					}
				}
			}
			JOINT lCollar
			{
				OFFSET 3.470700 6.669187 -0.816635 
				CHANNELS 3 Yrotation Zrotation Xrotation
				JOINT lShldr
				{
					OFFSET 3.198488 0.000000 0.000000 
					CHANNELS 3 Zrotation Yrotation Xrotation
					JOINT lForeArm
					{
						OFFSET 10.139888 0.000000 0.000000 
						CHANNELS 3 Yrotation Zrotation Xrotation
						JOINT lHand
						{
							OFFSET 8.370511 0.000000 0.000000 
							CHANNELS 3 Zrotation Yrotation Xrotation
							End Site
							{
								OFFSET 4.083176 0.000000 0.000000 
							}
						}
					}
				}
			}
			JOINT rCollar
			{
				OFFSET -3.470700 6.669187 -0.816635 
				CHANNELS 3 Yrotation Zrotation Xrotation
				JOINT rShldr
				{
					OFFSET -3.198488 0.000000 0.000000 
					CHANNELS 3 Zrotation Yrotation Xrotation
					JOINT rForeArm
					{
						OFFSET -10.139888 0.000000 0.000000 
						CHANNELS 3 Yrotation Zrotation Xrotation
						JOINT rHand
						{
							OFFSET -8.370511 0.000000 0.000000 
							CHANNELS 3 Zrotation Yrotation Xrotation
							End Site
							{
								OFFSET -4.083176 0.000000 0.000000 
							}
						}
					}
				}
			}
		}
	}
	JOINT lThigh
	{
		OFFSET 5.308129 -1.633274 1.361059 
		CHANNELS 3 Xrotation Zrotation Yrotation
		JOINT lShin
		{
			OFFSET -2.041588 -20.007561 0.000000 
			CHANNELS 3 Xrotation Zrotation Yrotation
			JOINT lFoot
			{
				OFFSET 0.000000 -19.190928 -1.224953 
				CHANNELS 3 Xrotation Yrotation Zrotation
				End Site
				{
					OFFSET 0.000000 -2.449906 4.627600 
				}
			}
		}
	}
	JOINT rThigh
	{
		OFFSET -5.308129 -1.633274 1.361059 
		CHANNELS 3 Xrotation Zrotation Yrotation
		JOINT rShin
		{
			OFFSET 2.041588 -20.007561 0.000000 
			CHANNELS 3 Xrotation Zrotation Yrotation
			JOINT rFoot
			{
				OFFSET 0.000000 -19.190928 -1.224953 
				CHANNELS 3 Xrotation Yrotation Zrotation
				End Site
				{
					OFFSET 0.000000 -2.449906 4.627600 
				}
			}
		}
	}
}
MOTION
Frames: 10
Frame Time: 0.011111
-45.904129 51.040024 0.557415 175.897018 173.636017 2.197801 14.321706 -2.157760 1.762441 -17.799553 1.586948 0.953355 0.037645 1.983978 7.402962 -19.498064 2.555288 11.697704 2.785591 -10.422155 1.651026 -64.916237 -39.330708 20.297293 -35.629902 3.054801 2.919831 8.524705 12.647240 -60.179089 2.149531 12.114442 0.054873 67.446701 26.642879 12.449507 41.121071 -5.144217 4.787738 -8.534408 -12.637552 31.751814 -4.098352 8.830254 2.107083 29.532980 -5.366732 -4.782636 -32.480621 8.267184 3.316603 -2.664680 -8.551234 2.799387 20.913176 5.727557 3.626953 -16.755322 -7.917673 0.746544 
-45.899712 51.045807 0.574070 175.906784 173.649597 2.150871 14.379034 -2.161680 1.765878 -17.751102 1.497965 0.961476 -0.224477 2.552463 7.384788 -19.109350 1.892960 11.818340 2.785591 -10.422155 1.651026 -64.851807 -39.488354 19.983305 -35.519951 3.006683 2.890785 8.524705 12.647240 -60.559948 2.149531 12.114442 0.054873 67.560333 26.834677 12.345770 40.948917 -5.089481 4.733321 -8.534408 -12.637552 31.595560 -4.159211 8.806050 2.057174 29.643417 -5.357265 -4.799654 -32.420086 8.408814 3.369513 -2.635634 -8.551888 2.828840 20.758560 5.737611 3.614533 -16.623489 -7.961425 0.753045 
-45.909908 51.042065 0.589705 175.894363 173.398743 1.955717 14.371963 -1.848256 2.009946 -17.712725 1.339803 0.996112 -0.381452 2.932511 7.394102 -18.821669 1.357834 11.982689 2.785591 -10.422155 1.651026 -64.833542 -39.537579 19.953581 -35.509899 2.999303 2.884322 8.524705 12.647240 -60.647839 2.149531 12.114442 0.054873 67.599083 26.983438 11.842675 40.614246 -4.969722 4.608974 -8.534408 -12.637552 31.263527 -4.139187 9.048627 1.995103 29.483362 -5.366508 -4.778213 -32.291176 8.582910 3.429028 -2.782409 -8.308730 2.897048 21.036280 5.719023 3.656480 -16.752468 -7.808677 0.763123 
-45.938797 51.053959 0.614516 175.621246 173.673981 1.789187 14.105999 -2.104092 2.005196 -17.683729 1.270291 1.013907 -0.469361 3.138342 7.392063 -18.668711 1.092047 12.038216 2.785591 -10.422155 1.651026 -64.813576 -39.537991 19.777376 -35.519951 3.006683 2.890785 8.524705 12.647240 -60.794327 2.149531 12.114442 0.054873 67.653687 26.594997 12.261212 41.192436 -5.173254 4.819079 -8.534408 -12.637552 32.044777 -4.324518 8.697679 1.885928 29.440479 -5.381815 -4.796994 -32.365211 8.650231 3.488297 -3.220636 -8.677584 2.658247 21.128035 5.717730 3.654374 -16.720322 -7.610583 0.820450 
-46.007118 51.071632 0.663120 174.889023 175.356796 1.713006 13.392725 -3.979914 1.392349 -17.614115 1.553158 0.996458 -0.623983 3.469271 7.360823 -18.352236 0.604668 12.094894 2.785591 -10.422155 1.651026 -64.823906 -39.547550 19.465086 -35.509899 2.999303 2.884322 8.524705 12.647240 -60.970108 2.149531 12.114442 0.054873 67.574890 26.463711 13.223771 41.476521 -5.265967 4.913543 -8.534408 -12.637552 33.158062 -4.609894 6.738661 1.650695 29.241728 -5.384264 -4.770390 -32.399185 8.763751 3.553513 -4.549684 -10.730652 1.721003 21.372673 5.708070 3.694151 -16.752066 -6.837870 1.007440 
-45.945595 51.067215 0.647825 175.460159 174.454041 1.628144 14.057049 -3.011867 1.670403 -17.702282 1.496126 0.992031 -0.453777 3.204835 7.452331 -18.593157 1.022189 12.174652 2.785591 -10.422155 1.651026 -64.844208 -39.556892 19.393599 -35.499844 2.991919 2.877862 8.524705 12.647240 -60.979866 2.149531 12.114442 0.054873 67.507935 26.597162 12.936996 41.242573 -5.182230 4.828025 -8.534408 -12.637552 32.679543 -4.117991 7.796210 1.733787 29.024141 -5.385941 -4.712753 -32.369247 8.718215 3.527761 -3.892963 -9.562764 2.301326 21.707571 5.698836 3.751588 -17.031174 -7.179823 0.865215 
-45.969387 51.057022 0.668898 175.316971 175.014206 1.542385 13.965485 -3.591950 1.503855 -17.701897 1.583963 0.995097 -0.386471 2.893970 7.472322 -18.680283 1.412148 12.140635 2.785591 -10.422155 1.651026 -64.901711 -39.487316 19.886703 -35.569897 3.027078 2.902047 8.524705 12.647240 -60.501358 2.149531 12.114442 0.054873 67.386749 26.669094 12.635844 40.999603 -5.105988 4.748516 -8.534408 -12.637552 32.269394 -4.000137 7.121544 1.654951 28.792557 -5.405565 -4.686759 -32.230064 8.941681 3.576125 -4.350882 -10.244708 1.985060 22.022993 5.687599 3.788355 -17.141733 -6.635727 1.008822 
-45.987061 51.045464 0.694389 175.133331 175.395340 1.480582 13.805572 -3.968350 1.345459 -17.652792 1.642019 0.988780 -0.139679 2.629174 7.579520 -19.056526 1.599625 12.286051 2.785591 -10.422155 1.651026 -64.939934 -39.437672 20.522322 -35.659485 3.061004 2.927935 8.524705 12.647240 -60.042370 2.149531 12.114442 0.054873 67.291290 26.644547 12.988731 41.019676 -5.111346 4.757225 -8.534408 -12.637552 32.699078 -4.109995 6.638388 1.406932 28.793036 -5.400820 -4.695339 -32.299213 9.190087 3.735734 -4.686440 -10.740233 1.763123 22.013216 5.687583 3.777756 -17.128452 -6.395905 1.056696 
-45.981281 51.042747 0.707644 175.240158 175.298355 1.392736 13.960680 -3.802640 1.352986 -17.604204 1.582977 0.978276 0.739820 0.602750 7.808200 -20.634449 4.666051 11.984169 2.785591 -10.422155 1.651026 -64.943001 -39.525536 20.577351 -35.619587 3.048031 2.923090 8.524705 12.647240 -60.140022 2.149531 12.114442 0.054873 67.320313 26.646061 12.919973 41.110748 -5.137874 4.780174 -8.534408 -12.637552 32.650246 -3.989505 6.700927 1.190528 28.742844 -5.405575 -4.682390 -32.271366 9.469374 3.861070 -4.626489 -10.610277 1.804257 22.113672 5.688106 3.796341 -17.041298 -6.489346 1.052387 
-45.975506 51.047504 0.723620 175.288651 175.257278 1.314882 14.076650 -3.728970 1.366357 -17.584930 1.524090 0.976653 0.626976 0.644512 7.897869 -20.595919 4.907120 12.104218 2.785591 -10.422155 1.651026 -64.904778 -39.575176 20.898771 -35.639664 3.054224 2.920638 8.524705 12.647240 -59.876354 2.149531 12.114442 0.054873 67.342834 26.598328 12.568143 41.253490 -5.195889 4.842028 -8.534408 -12.637552 32.464706 -4.022171 6.736077 1.103877 28.853622 -5.391372 -4.717769 -32.267555 9.604399 3.927920 -4.518692 -10.541073 1.823388 22.000418 5.698692 3.777922 -16.697960 -6.480866 1.111044 
